<svg xmlns="http://www.w3.org/2000/svg" width="55.391" height="98" viewBox="0 0 55.391 98">
  <path id="iconfinder_290123_call_communication_mobile_phone_telephone_icon" d="M57.87,99H19.522A8.522,8.522,0,0,1,11,90.478V9.522A8.522,8.522,0,0,1,19.522,1H57.87a8.522,8.522,0,0,1,8.522,8.522V90.478A8.522,8.522,0,0,1,57.87,99ZM62.13,9.522A4.262,4.262,0,0,0,57.87,5.261H19.522a4.262,4.262,0,0,0-4.261,4.261v8.522H62.13Zm0,12.783H15.261V77.7H62.13Zm0,59.652H15.261v8.522a4.262,4.262,0,0,0,4.261,4.261H57.87a4.262,4.262,0,0,0,4.261-4.261ZM38.7,92.609a4.261,4.261,0,1,1,4.261-4.261A4.262,4.262,0,0,1,38.7,92.609ZM23.783,28.7h4.261a2.13,2.13,0,0,1,2.13,2.13v4.261a2.13,2.13,0,0,1-2.13,2.13H23.783a2.13,2.13,0,0,1-2.13-2.13V30.826A2.13,2.13,0,0,1,23.783,28.7Zm0,14.913h4.261a2.13,2.13,0,0,1,2.13,2.13V50a2.128,2.128,0,0,1-2.13,2.13H23.783A2.128,2.128,0,0,1,21.652,50V45.739A2.13,2.13,0,0,1,23.783,43.609Zm0,14.913h4.261a2.128,2.128,0,0,1,2.13,2.13v4.261a2.128,2.128,0,0,1-2.13,2.13H23.783a2.128,2.128,0,0,1-2.13-2.13V60.652A2.128,2.128,0,0,1,23.783,58.522ZM36.565,28.7h4.261a2.13,2.13,0,0,1,2.13,2.13v4.261a2.13,2.13,0,0,1-2.13,2.13H36.565a2.13,2.13,0,0,1-2.13-2.13V30.826A2.13,2.13,0,0,1,36.565,28.7Zm0,14.913h4.261a2.13,2.13,0,0,1,2.13,2.13V50a2.128,2.128,0,0,1-2.13,2.13H36.565A2.128,2.128,0,0,1,34.435,50V45.739A2.13,2.13,0,0,1,36.565,43.609Zm0,14.913h4.261a2.128,2.128,0,0,1,2.13,2.13v4.261a2.128,2.128,0,0,1-2.13,2.13H36.565a2.128,2.128,0,0,1-2.13-2.13V60.652A2.128,2.128,0,0,1,36.565,58.522ZM49.348,28.7h4.261a2.13,2.13,0,0,1,2.13,2.13v4.261a2.13,2.13,0,0,1-2.13,2.13H49.348a2.13,2.13,0,0,1-2.13-2.13V30.826A2.13,2.13,0,0,1,49.348,28.7Zm0,14.913h4.261a2.13,2.13,0,0,1,2.13,2.13V50a2.128,2.128,0,0,1-2.13,2.13H49.348A2.128,2.128,0,0,1,47.217,50V45.739A2.13,2.13,0,0,1,49.348,43.609ZM32.3,9.522H45.087a2.13,2.13,0,1,1,0,4.261H32.3a2.13,2.13,0,1,1,0-4.261Z" transform="translate(-11 -1)" fill="#fff" fill-rule="evenodd"/>
</svg>
