<svg xmlns="http://www.w3.org/2000/svg" width="97.727" height="80.731" viewBox="0 0 97.727 80.731">
  <path id="iconfinder_290104_calendar_clock_date_event_schedule_icon" d="M90.229,85.731H9.5a8.5,8.5,0,0,1-8.5-8.5V13.5A8.5,8.5,0,0,1,9.5,5H90.229a8.5,8.5,0,0,1,8.5,8.5V77.233A8.5,8.5,0,0,1,90.229,85.731ZM94.478,13.5a4.251,4.251,0,0,0-4.249-4.249H9.5A4.251,4.251,0,0,0,5.249,13.5V26.245H94.478Zm0,17H5.249V77.233A4.251,4.251,0,0,0,9.5,81.482H90.229a4.251,4.251,0,0,0,4.249-4.249Zm-8.5,29.743H81.731a2.124,2.124,0,0,1-2.125-2.125V53.864a2.125,2.125,0,0,1,2.125-2.125H85.98A2.124,2.124,0,0,1,88.1,53.864v4.249A2.123,2.123,0,0,1,85.98,60.237Zm0-14.872H81.731a2.124,2.124,0,0,1-2.125-2.125V38.992a2.124,2.124,0,0,1,2.125-2.125H85.98A2.123,2.123,0,0,1,88.1,38.992v4.249A2.123,2.123,0,0,1,85.98,45.366Zm-17,14.872H64.735a2.124,2.124,0,0,1-2.125-2.125V53.864a2.125,2.125,0,0,1,2.125-2.125h4.249a2.124,2.124,0,0,1,2.125,2.125v4.249A2.123,2.123,0,0,1,68.984,60.237Zm0-14.872H64.735a2.124,2.124,0,0,1-2.125-2.125V38.992a2.124,2.124,0,0,1,2.125-2.125h4.249a2.123,2.123,0,0,1,2.125,2.125v4.249A2.123,2.123,0,0,1,68.984,45.366Zm-17,14.872H47.739a2.123,2.123,0,0,1-2.125-2.125V53.864a2.124,2.124,0,0,1,2.125-2.125h4.249a2.124,2.124,0,0,1,2.125,2.125v4.249A2.123,2.123,0,0,1,51.988,60.237Zm0-14.872H47.739a2.123,2.123,0,0,1-2.125-2.125V38.992a2.123,2.123,0,0,1,2.125-2.125h4.249a2.123,2.123,0,0,1,2.125,2.125v4.249A2.123,2.123,0,0,1,51.988,45.366Zm-17,29.743H30.743a2.123,2.123,0,0,1-2.125-2.125V68.735a2.123,2.123,0,0,1,2.125-2.125h4.249a2.123,2.123,0,0,1,2.125,2.125v4.249A2.123,2.123,0,0,1,34.992,75.109Zm0-14.872H30.743a2.123,2.123,0,0,1-2.125-2.125V53.864a2.124,2.124,0,0,1,2.125-2.125h4.249a2.124,2.124,0,0,1,2.125,2.125v4.249A2.123,2.123,0,0,1,34.992,60.237Zm0-14.872H30.743a2.123,2.123,0,0,1-2.125-2.125V38.992a2.123,2.123,0,0,1,2.125-2.125h4.249a2.123,2.123,0,0,1,2.125,2.125v4.249A2.123,2.123,0,0,1,34.992,45.366ZM18,75.109H13.747a2.123,2.123,0,0,1-2.125-2.125V68.735a2.123,2.123,0,0,1,2.125-2.125H18a2.123,2.123,0,0,1,2.125,2.125v4.249A2.123,2.123,0,0,1,18,75.109Zm0-14.872H13.747a2.123,2.123,0,0,1-2.125-2.125V53.864a2.124,2.124,0,0,1,2.125-2.125H18a2.124,2.124,0,0,1,2.125,2.125v4.249A2.123,2.123,0,0,1,18,60.237Zm29.743,6.374h4.249a2.123,2.123,0,0,1,2.125,2.125v4.249a2.123,2.123,0,0,1-2.125,2.125H47.739a2.123,2.123,0,0,1-2.125-2.125V68.735A2.123,2.123,0,0,1,47.739,66.611Z" transform="translate(-1 -5)" fill="#fff" fill-rule="evenodd"/>
</svg>
