<svg xmlns="http://www.w3.org/2000/svg" width="103.235" height="92" viewBox="0 0 103.235 92">
  <path id="iconfinder_290143_cash_money_payment_wallet_icon" d="M104.235,84.785h0A11.219,11.219,0,0,1,93.013,96.006H12.221A11.22,11.22,0,0,1,1,84.785V19.7a8.977,8.977,0,0,1,8.977-8.977H55.245L73.421,4.141a2.222,2.222,0,0,1,2.846,1.322l1.914,5.263h8.1A8.977,8.977,0,0,1,95.258,19.7v4.488h0a8.977,8.977,0,0,1,8.977,8.977ZM9.977,15.214h0a4.488,4.488,0,0,0,0,8.977h8.156c.029-.011.047-.036.076-.047l24.646-8.93Zm65.258.406L72.851,9.058h0l-4.6,1.667h.007L55.878,15.214h-.022L31.082,24.191H78.35ZM90.769,19.7a4.49,4.49,0,0,0-4.488-4.488h-6.47l3.263,8.977h7.7Zm4.488,8.977H9.977a8.876,8.876,0,0,1-4.488-1.246V84.785a6.734,6.734,0,0,0,6.733,6.733H93.013a6.732,6.732,0,0,0,6.733-6.733V69.075H90.769a8.977,8.977,0,0,1,0-17.954h8.977V33.168A4.49,4.49,0,0,0,95.258,28.679Zm4.488,35.908V55.61H90.769a4.488,4.488,0,0,0,0,8.977Zm-8.977-6.733h4.488v4.488H90.769Z" transform="translate(-1 -4.006)" fill="#fff" fill-rule="evenodd"/>
</svg>
